<svg width="37" height="42" viewBox="0 0 37 42" fill="none" xmlns="http://www.w3.org/2000/svg">
<g clip-path="url(#clip0)">
<path d="M35.1525 13.125H0.9675C0.433198 13.125 0 12.6842 0 12.1406V9.1875C0 7.01285 1.73263 5.25 3.87 5.25H7.74V0.984375C7.74 0.440754 8.1732 0 8.7075 0H11.9325C12.4668 0 12.9 0.440754 12.9 0.984375V5.25H23.22V0.984375C23.22 0.440754 23.6532 0 24.1875 0H27.4125C27.9468 0 28.38 0.440754 28.38 0.984375V5.25H32.25C34.3874 5.25 36.12 7.01285 36.12 9.1875V12.1406C36.12 12.6842 35.6868 13.125 35.1525 13.125ZM0.9675 15.75H35.1525C35.6868 15.75 36.12 16.1908 36.12 16.7344V38.0625C36.12 40.2371 34.3874 42 32.25 42H3.87C1.73263 42 0 40.2371 0 38.0625V16.7344C0 16.1908 0.433198 15.75 0.9675 15.75ZM27.8395 23.6207L25.5684 21.2911C25.1921 20.9052 24.5795 20.9026 24.2002 21.2855L15.6509 29.9139L11.9438 26.1116C11.5675 25.7257 10.9548 25.7231 10.5755 26.106L8.28599 28.4169C7.90665 28.7997 7.90415 29.423 8.28051 29.8089L14.9402 36.6396C15.3165 37.0255 15.9291 37.0281 16.3084 36.6452L27.834 25.0127C28.2133 24.6299 28.2158 24.0066 27.8395 23.6207Z" fill="#FF5A78"/>
</g>
<defs>
<clipPath id="clip0">
<rect width="36.12" height="42" fill="white"/>
</clipPath>
</defs>
</svg>
