<svg width="37" height="31" viewBox="0 0 37 31" fill="none" xmlns="http://www.w3.org/2000/svg">
<path d="M2.40869 13.687L0.408692 13.687L0.408691 17.687L2.40869 17.687L2.40869 13.687ZM36.3794 17.1012C37.1605 16.3201 37.1605 15.0538 36.3794 14.2727L23.6515 1.54482C22.8705 0.763772 21.6041 0.763772 20.8231 1.54482C20.042 2.32587 20.042 3.5922 20.8231 4.37325L32.1368 15.687L20.8231 27.0007C20.042 27.7817 20.042 29.048 20.8231 29.8291C21.6041 30.6101 22.8705 30.6101 23.6515 29.8291L36.3794 17.1012ZM2.40869 17.687L34.9652 17.687L34.9652 13.687L2.40869 13.687L2.40869 17.687Z" fill="white"/>
</svg>
