<svg width="49" height="49" viewBox="0 0 49 49" fill="none" xmlns="http://www.w3.org/2000/svg">
<path d="M24.5 0.765625C11.3887 0.765625 0.765625 11.3887 0.765625 24.5C0.765625 37.6113 11.3887 48.2344 24.5 48.2344C37.6113 48.2344 48.2344 37.6113 48.2344 24.5C48.2344 11.3887 37.6113 0.765625 24.5 0.765625ZM24.5 43.6406C13.9248 43.6406 5.35938 35.0752 5.35938 24.5C5.35938 13.9248 13.9248 5.35938 24.5 5.35938C35.0752 5.35938 43.6406 13.9248 43.6406 24.5C43.6406 35.0752 35.0752 43.6406 24.5 43.6406ZM30.4145 33.6492L22.2893 27.7443C21.9926 27.5242 21.8203 27.1797 21.8203 26.816V11.1016C21.8203 10.4699 22.3371 9.95312 22.9688 9.95312H26.0312C26.6629 9.95312 27.1797 10.4699 27.1797 11.1016V24.6627L33.5727 29.3139C34.0895 29.6871 34.1947 30.4049 33.8215 30.9217L32.0223 33.4004C31.649 33.9076 30.9312 34.0225 30.4145 33.6492Z" fill="#FF3030"/>
</svg>
