<svg width="42" height="42" viewBox="0 0 42 42" fill="none" xmlns="http://www.w3.org/2000/svg">
<g clip-path="url(#clip0)">
<path d="M6.5625 30.1875H1.3125C0.964403 30.1875 0.630564 30.3258 0.384422 30.5719C0.138281 30.8181 0 31.1519 0 31.5L0 36.75C0 37.0981 0.138281 37.4319 0.384422 37.6781C0.630564 37.9242 0.964403 38.0625 1.3125 38.0625H6.5625C6.9106 38.0625 7.24444 37.9242 7.49058 37.6781C7.73672 37.4319 7.875 37.0981 7.875 36.75V31.5C7.875 31.1519 7.73672 30.8181 7.49058 30.5719C7.24444 30.3258 6.9106 30.1875 6.5625 30.1875ZM6.5625 3.9375H1.3125C0.964403 3.9375 0.630564 4.07578 0.384422 4.32192C0.138281 4.56806 0 4.9019 0 5.25L0 10.5C0 10.8481 0.138281 11.1819 0.384422 11.4281C0.630564 11.6742 0.964403 11.8125 1.3125 11.8125H6.5625C6.9106 11.8125 7.24444 11.6742 7.49058 11.4281C7.73672 11.1819 7.875 10.8481 7.875 10.5V5.25C7.875 4.9019 7.73672 4.56806 7.49058 4.32192C7.24444 4.07578 6.9106 3.9375 6.5625 3.9375ZM6.5625 17.0625H1.3125C0.964403 17.0625 0.630564 17.2008 0.384422 17.4469C0.138281 17.6931 0 18.0269 0 18.375L0 23.625C0 23.9731 0.138281 24.3069 0.384422 24.5531C0.630564 24.7992 0.964403 24.9375 1.3125 24.9375H6.5625C6.9106 24.9375 7.24444 24.7992 7.49058 24.5531C7.73672 24.3069 7.875 23.9731 7.875 23.625V18.375C7.875 18.0269 7.73672 17.6931 7.49058 17.4469C7.24444 17.2008 6.9106 17.0625 6.5625 17.0625ZM40.6875 31.5H14.4375C14.0894 31.5 13.7556 31.6383 13.5094 31.8844C13.2633 32.1306 13.125 32.4644 13.125 32.8125V35.4375C13.125 35.7856 13.2633 36.1194 13.5094 36.3656C13.7556 36.6117 14.0894 36.75 14.4375 36.75H40.6875C41.0356 36.75 41.3694 36.6117 41.6156 36.3656C41.8617 36.1194 42 35.7856 42 35.4375V32.8125C42 32.4644 41.8617 32.1306 41.6156 31.8844C41.3694 31.6383 41.0356 31.5 40.6875 31.5ZM40.6875 5.25H14.4375C14.0894 5.25 13.7556 5.38828 13.5094 5.63442C13.2633 5.88056 13.125 6.2144 13.125 6.5625V9.1875C13.125 9.5356 13.2633 9.86944 13.5094 10.1156C13.7556 10.3617 14.0894 10.5 14.4375 10.5H40.6875C41.0356 10.5 41.3694 10.3617 41.6156 10.1156C41.8617 9.86944 42 9.5356 42 9.1875V6.5625C42 6.2144 41.8617 5.88056 41.6156 5.63442C41.3694 5.38828 41.0356 5.25 40.6875 5.25ZM40.6875 18.375H14.4375C14.0894 18.375 13.7556 18.5133 13.5094 18.7594C13.2633 19.0056 13.125 19.3394 13.125 19.6875V22.3125C13.125 22.6606 13.2633 22.9944 13.5094 23.2406C13.7556 23.4867 14.0894 23.625 14.4375 23.625H40.6875C41.0356 23.625 41.3694 23.4867 41.6156 23.2406C41.8617 22.9944 42 22.6606 42 22.3125V19.6875C42 19.3394 41.8617 19.0056 41.6156 18.7594C41.3694 18.5133 41.0356 18.375 40.6875 18.375Z" fill="#FF5A78"/>
</g>
<defs>
<clipPath id="clip0">
<rect width="42" height="42" fill="white"/>
</clipPath>
</defs>
</svg>
