<svg width="37" height="42" viewBox="0 0 37 42" fill="none" xmlns="http://www.w3.org/2000/svg">
<g clip-path="url(#clip0)">
<path d="M23.625 11.1562V0H7.21875C6.12773 0 5.25 0.877734 5.25 1.96875V21H0.65625C0.295312 21 0 21.2953 0 21.6562V22.9688C0 23.3297 0.295312 23.625 0.65625 23.625H12.2145C12.4605 23.625 12.6902 23.7645 12.8051 23.9859L14.4375 27.2508L19.0969 17.9238C19.3348 17.4398 20.032 17.4398 20.2699 17.9238L23.1164 23.625H28.875C29.5969 23.625 30.1875 24.2156 30.1875 24.9375C30.1875 25.6594 29.5969 26.25 28.875 26.25H21.5004L19.6875 22.6242L15.0281 31.9512C14.7902 32.4352 14.093 32.4352 13.8551 31.9512L11.0004 26.25H5.25V40.0312C5.25 41.1223 6.12773 42 7.21875 42H34.7812C35.8723 42 36.75 41.1223 36.75 40.0312V13.125H25.5938C24.5109 13.125 23.625 12.2391 23.625 11.1562ZM36.1758 8.61328L28.1449 0.574219C27.7758 0.205078 27.2754 0 26.7504 0H26.25V10.5H36.75V9.99961C36.75 9.48281 36.5449 8.98242 36.1758 8.61328Z" fill="#FBF9FA"/>
</g>
<defs>
<clipPath id="clip0">
<rect width="36.75" height="42" fill="white"/>
</clipPath>
</defs>
</svg>
